<svg xmlns="http://www.w3.org/2000/svg"
 xmlns:xlink="http://www.w3.org/1999/xlink"
 width="31px" height="32px"  viewBox="0 0 31 32">
<path fill-rule="evenodd"  fill="#4e4e4e"
 d="M29.665161,26.327698 C29.665161,26.327698 19.177246,15.839874 19.177246,15.839874 C19.177246,15.839874 29.766968,5.2503357 29.766968,5.2503357 C29.766968,5.2503357 26.101318,1.5846863 26.101318,1.5846863 C26.101318,1.5846863 15.511597,12.174225 15.511597,12.174225 C15.511597,12.174225 5.0238037,1.6864014 5.0238037,1.6864014 C5.0238037,1.6864014 1.2563477,5.45401 1.2563477,5.45401 C1.2563477,5.45401 11.744263,15.941589 11.744263,15.941589 C11.744263,15.941589 1.154541,26.531372 1.154541,26.531372 C1.154541,26.531372 4.8201904,30.196991 4.8201904,30.196991 C4.8201904,30.196991 15.409912,19.607208 15.409912,19.607208 C15.409912,19.607208 25.897583,30.095032 25.897583,30.095032 C25.897583,30.095032 29.665161,26.327698 29.665161,26.327698 Z"/>
</svg>