<svg xmlns="http://www.w3.org/2000/svg"
 xmlns:xlink="http://www.w3.org/1999/xlink"
 width="31px" height="28px"  viewBox="0 0 31 28">
<path fill-rule="evenodd"  fill="#1d9942"
 d="M20.159851,26.987183 C16.290283,26.987183 11.972961,25.153877 8.47168,21.714958 C2.8729858,16.217003 1.3546143,8.567612 4.940796,3.9220924 C4.940796,3.9220924 6.2455444,4.898304 6.2455444,4.898304 C3.2053223,8.837948 4.690857,15.7224045 9.62915,20.571594 C14.557861,25.413677 21.463684,26.785713 25.349426,23.693848 C25.349426,23.693848 26.380432,24.949223 26.380432,24.949223 C24.6521,26.324448 22.486816,26.987183 20.159851,26.987183 ZM27.851562,23.059792 C27.851562,23.059792 21.655823,16.940277 21.655823,16.940277 C21.655823,16.940277 20.541504,18.039768 20.541504,18.039768 C19.369629,19.198574 17.809326,19.837536 16.150085,19.837536 C14.489868,19.837536 12.92981,19.199066 11.756897,18.03928 C9.336243,15.650345 9.336243,11.761681 11.756897,9.370785 C11.756897,9.370785 12.874451,8.26786 12.874451,8.26786 C12.874451,8.26786 6.675415,2.1441784 6.675415,2.1441784 C6.675415,2.1441784 7.8360596,1.0049801 7.8360596,1.0049801 C7.8360596,1.0049801 15.189453,8.26786 15.189453,8.26786 C15.189453,8.26786 12.917603,10.510719 12.917603,10.510719 C11.133423,12.272945 11.133423,15.138588 12.917603,16.899834 C13.781372,17.753746 14.929321,18.223343 16.150085,18.223343 C17.369995,18.223343 18.517883,17.753254 19.380066,16.900818 C19.380066,16.900818 21.655823,14.654037 21.655823,14.654037 C21.655823,14.654037 29.01233,21.92035 29.01233,21.92035 C29.01233,21.92035 27.851562,23.059792 27.851562,23.059792 Z"/>
</svg>